<svg xmlns="http://www.w3.org/2000/svg" xmlns:xlink="http://www.w3.org/1999/xlink" version="1.1" x="0px" y="0px" viewBox="0 0 100 125" style="enable-background:new 0 0 100 100;" xml:space="preserve"><style type="text/css">
	.st0{fill:none;stroke:#000000;stroke-width:2;stroke-linecap:round;stroke-miterlimit:10;}
	.st1{fill:none;stroke:#000000;stroke-width:2;stroke-linecap:round;stroke-linejoin:round;stroke-miterlimit:10;}
	.st2{fill:none;stroke:#000000;stroke-width:2;stroke-miterlimit:10;}
</style><path d="M87.2,42.7h-5.6c-0.6,0-1,0.4-1,1s0.4,1,1,1h2.9L63.1,62c-0.5-0.4-1.2-0.7-2-0.7c-0.4,0-0.7,0.1-1.1,0.2L39.8,39.4  c0.2-0.4,0.3-0.9,0.3-1.4c0-1.8-1.5-3.3-3.3-3.3c-1.8,0-3.3,1.5-3.3,3.3c0,0.5,0.1,0.9,0.3,1.3L15.5,53.4c-0.5-0.4-1.2-0.6-1.9-0.6  c-1.8,0-3.3,1.5-3.3,3.3c0,1.8,1.5,3.3,3.3,3.3c1.8,0,3.3-1.5,3.3-3.3c0-0.4-0.1-0.7-0.2-1l18.6-14.2c0.5,0.3,1.1,0.5,1.7,0.5  c0.6,0,1.1-0.2,1.5-0.4l20,21.9c-0.4,0.5-0.6,1.2-0.6,1.8c0,1.8,1.5,3.3,3.3,3.3s3.3-1.5,3.3-3.3c0-0.3-0.1-0.6-0.2-0.9l22-17.7v2.7  c0,0.6,0.4,1,1,1s1-0.4,1-1v-4.9C88.2,43.1,87.8,42.7,87.2,42.7z"/><text x="0" y="115" fill="#000000" font-size="5px" font-weight="bold" font-family="'Helvetica Neue', Helvetica, Arial-Unicode, Arial, Sans-serif">Created by Made Somewhere</text><text x="0" y="120" fill="#000000" font-size="5px" font-weight="bold" font-family="'Helvetica Neue', Helvetica, Arial-Unicode, Arial, Sans-serif">from the Noun Project</text></svg>